<svg width="240" height="240" viewBox="0 0 240 240" xmlns="http://www.w3.org/2000/svg">
  <defs>
    <linearGradient id="annotationGradient" x1="0%" y1="0%" x2="100%" y2="100%">
      <stop offset="0%" style="stop-color:#3452FF"/>
      <stop offset="100%" style="stop-color:#8896FF"/>
    </linearGradient>
    <linearGradient id="paperGradient" x1="0%" y1="0%" x2="100%" y2="100%">
      <stop offset="0%" style="stop-color:#FFFFFF"/>
      <stop offset="100%" style="stop-color:#BDD0FB"/>
    </linearGradient>
  </defs>

  <!-- Main container -->
  <g transform="translate(20, 20)">
    <!-- Document stack -->
    <g transform="translate(0, 0)">
      <!-- Background papers -->
      <rect x="30" y="30" width="140" height="160" 
            rx="10" fill="#BDD0FB" opacity="0.3"/>
      <rect x="40" y="40" width="140" height="160" 
            rx="10" fill="#BDD0FB" opacity="0.5"/>
      
      <!-- Main document -->
      <rect x="50" y="50" width="140" height="160" 
            rx="10" fill="url(#paperGradient)"/>

      <!-- Text content -->
      <g transform="translate(70, 80)">
        <!-- Text lines -->
        <rect width="80" height="4" rx="2" fill="#3452FF" opacity="0.6"/>
        <rect y="20" width="100" height="4" rx="2" fill="#3452FF" opacity="0.6"/>
        <rect y="40" width="90" height="4" rx="2" fill="#3452FF" opacity="0.6"/>
        
        <!-- Annotation highlights -->
        <rect y="70" width="60" height="20" 
              rx="4" fill="url(#annotationGradient)" 
              opacity="0.2"/>
        <rect y="100" width="80" height="20" 
              rx="4" fill="url(#annotationGradient)" 
              opacity="0.2"/>
      </g>
    </g>

    <!-- Annotation tools -->
    <g transform="translate(160, 40)">
      <!-- Pencil -->
      <path d="M0 40 L20 20 L30 30 L10 50 L0 40Z" 
            fill="url(#annotationGradient)"/>
      <path d="M22 18 L32 28" 
            stroke="#BDD0FB" 
            stroke-width="2"/>
    </g>
  </g>
</svg>
