<svg width="240" height="240" viewBox="0 0 240 240" xmlns="http://www.w3.org/2000/svg">
  <defs>
    <linearGradient id="appGradient" x1="0%" y1="0%" x2="100%" y2="100%">
      <stop offset="0%" style="stop-color:#3452FF"/>
      <stop offset="100%" style="stop-color:#8896FF"/>
    </linearGradient>
  </defs>

  <!-- Main container -->
  <g transform="translate(20, 20)">
    <!-- App windows -->
    <g transform="translate(0, 0)">
      <!-- Background window -->
      <rect x="20" y="20" width="120" height="140" 
            rx="10" fill="#BDD0FB" opacity="0.3"/>
      
      <!-- Middle window -->
      <rect x="40" y="40" width="120" height="140" 
            rx="10" fill="#BDD0FB" opacity="0.5"/>
      
      <!-- Front window -->
      <rect x="60" y="60" width="120" height="140" 
            rx="10" fill="url(#appGradient)"/>
      
      <!-- Window controls -->
      <circle cx="80" cy="80" r="5" fill="white"/>
      <circle cx="100" cy="80" r="5" fill="white"/>
      <circle cx="120" cy="80" r="5" fill="white"/>
      
      <!-- Content lines -->
      <rect x="80" y="100" width="80" height="4" 
            rx="2" fill="white" opacity="0.8"/>
      <rect x="80" y="120" width="60" height="4" 
            rx="2" fill="white" opacity="0.8"/>
      <rect x="80" y="140" width="70" height="4" 
            rx="2" fill="white" opacity="0.8"/>
    </g>

    <!-- App icon -->
    <g transform="translate(140, 20)">
      <rect x="0" y="0" width="40" height="40" 
            rx="10" fill="url(#appGradient)"/>
      <path d="M10 20 L30 20" 
            stroke="white" 
            stroke-width="3"/>
    </g>
  </g>
</svg>