<?xml version="1.0" encoding="utf-8"?>
<svg width="240" height="240" viewBox="0 0 240 240" xmlns="http://www.w3.org/2000/svg">
  <defs>
    <linearGradient id="cloudGradient" x1="0%" y1="0%" x2="100%" y2="100%">
      <stop offset="0%" style="stop-color:#3452FF"/>
      <stop offset="100%" style="stop-color:#8896FF"/>
    </linearGradient>
    <linearGradient id="codeGradient" x1="0%" y1="0%" x2="100%" y2="100%">
      <stop offset="0%" style="stop-color:#FFFFFF"/>
      <stop offset="100%" style="stop-color:#BDD0FB"/>
    </linearGradient>
  </defs>

  <!-- Main container -->
  <g transform="translate(20, 20)">
    <!-- Cloud shape -->
    <path d="M60 100 
             C60 80, 80 60, 100 60
             C120 40, 160 40, 180 60
             C200 60, 220 80, 220 100
             C220 120, 200 140, 180 140
             L80 140
             C60 140, 40 120, 40 100
             Z" 
          fill="url(#cloudGradient)" 
          opacity="0.9"/>

    <!-- Code window -->
    <g transform="translate(70, 80)">
      <rect width="100" height="80" 
            rx="8" fill="url(#codeGradient)"/>
      
      <!-- Code lines -->
      <g transform="translate(10, 20)" fill="#3452FF" opacity="0.6">
        <rect width="60" height="2" rx="1"/>
        <rect y="10" width="40" height="2" rx="1"/>
        <rect y="20" width="50" height="2" rx="1"/>
        <rect y="30" width="30" height="2" rx="1"/>
      </g>
    </g>

    <!-- Processing indicators -->
    <g fill="url(#cloudGradient)">
      <circle cx="60" cy="80" r="3">
        <animate attributeName="opacity" values="1;0.2;1" dur="1.5s" repeatCount="indefinite"/>
      </circle>
      <circle cx="180" cy="80" r="3">
        <animate attributeName="opacity" values="1;0.2;1" dur="1.5s" repeatCount="indefinite"/>
      </circle>
    </g>
  </g>
</svg> 