<svg width="240" height="240" viewBox="0 0 240 240" xmlns="http://www.w3.org/2000/svg">
  <defs>
    <linearGradient id="modelGradient" x1="0%" y1="0%" x2="100%" y2="100%">
      <stop offset="0%" style="stop-color:#3452FF"/>
      <stop offset="100%" style="stop-color:#8896FF"/>
    </linearGradient>
  </defs>

  <!-- Main container -->
  <g transform="translate(20, 20)">
    <!-- Neural network -->
    <g transform="translate(40, 40)">
      <!-- Input layer -->
      <circle cx="20" cy="40" r="10" fill="url(#modelGradient)"/>
      <circle cx="20" cy="80" r="10" fill="url(#modelGradient)"/>
      <circle cx="20" cy="120" r="10" fill="url(#modelGradient)"/>
      
      <!-- Hidden layer -->
      <circle cx="80" cy="30" r="10" fill="url(#modelGradient)"/>
      <circle cx="80" cy="70" r="10" fill="url(#modelGradient)"/>
      <circle cx="80" cy="110" r="10" fill="url(#modelGradient)"/>
      <circle cx="80" cy="150" r="10" fill="url(#modelGradient)"/>
      
      <!-- Output layer -->
      <circle cx="140" cy="60" r="10" fill="url(#modelGradient)"/>
      <circle cx="140" cy="100" r="10" fill="url(#modelGradient)"/>
      
      <!-- Connections -->
      <g stroke="#BDD0FB" stroke-width="2">
        <!-- Input to hidden connections -->
        <path d="M30 40 L70 30 M30 40 L70 70 M30 40 L70 110"/>
        <path d="M30 80 L70 30 M30 80 L70 70 M30 80 L70 110"/>
        <path d="M30 120 L70 70 M30 120 L70 110 M30 120 L70 150"/>
        
        <!-- Hidden to output connections -->
        <path d="M90 30 L130 60 M90 70 L130 60"/>
        <path d="M90 110 L130 100 M90 150 L130 100"/>
      </g>
    </g>
  </g>
</svg>