<?xml version="1.0" encoding="utf-8"?>
<svg width="240" height="240" viewBox="0 0 240 240" xmlns="http://www.w3.org/2000/svg">
  <defs>
    <linearGradient id="pipelineGradient" x1="0%" y1="0%" x2="100%" y2="100%">
      <stop offset="0%" style="stop-color:#3452FF"/>
      <stop offset="100%" style="stop-color:#8896FF"/>
    </linearGradient>
    <linearGradient id="flowGradient" x1="0%" y1="0%" x2="100%" y2="0%">
      <stop offset="0%" style="stop-color:#BDD0FB"/>
      <stop offset="100%" style="stop-color:#3452FF"/>
    </linearGradient>
  </defs>

  <!-- Main container -->
  <g transform="translate(20, 20)">
    <!-- Pipeline nodes -->
    <g transform="translate(0, 0)">
      <!-- Input node -->
      <rect x="20" y="80" width="40" height="40" 
            rx="8" fill="url(#pipelineGradient)"/>
      <path d="M30 95 L50 95 M30 105 L40 105" 
            stroke="white" stroke-width="2"/>
      
      <!-- Processing nodes -->
      <rect x="90" y="40" width="40" height="40" 
            rx="8" fill="url(#pipelineGradient)"/>
      <path d="M100 55 L120 65 L100 75" 
            fill="none" stroke="white" stroke-width="2"/>
      
      <rect x="90" y="120" width="40" height="40" 
            rx="8" fill="url(#pipelineGradient)"/>
      <circle cx="110" cy="140" r="8" 
              fill="none" stroke="white" stroke-width="2"/>
      
      <!-- Output node -->
      <rect x="160" y="80" width="40" height="40" 
            rx="8" fill="url(#pipelineGradient)"/>
      <path d="M170 95 L190 95 M175 105 L185 105" 
            stroke="white" stroke-width="2"/>
    </g>

    <!-- Flow connections -->
    <g fill="none" stroke="url(#flowGradient)" stroke-width="2">
      <path d="M60 100 C 75 100, 75 60, 90 60"/>
      <path d="M60 100 C 75 100, 75 140, 90 140"/>
      <path d="M130 60 C 145 60, 145 100, 160 100"/>
      <path d="M130 140 C 145 140, 145 100, 160 100"/>
    </g>
  </g>
</svg> 