<svg width="240" height="240" viewBox="0 0 240 240" xmlns="http://www.w3.org/2000/svg">
  <defs>
    <linearGradient id="taskGradient" x1="0%" y1="0%" x2="100%" y2="100%">
      <stop offset="0%" style="stop-color:#3452FF"/>
      <stop offset="100%" style="stop-color:#8896FF"/>
    </linearGradient>
    <linearGradient id="humanGradient" x1="0%" y1="0%" x2="100%" y2="100%">
      <stop offset="0%" style="stop-color:#BDD0FB"/>
      <stop offset="100%" style="stop-color:#3452FF"/>
    </linearGradient>
  </defs>

  <!-- Main container -->
  <g transform="translate(20, 20)">
    <!-- Task cards -->
    <g transform="translate(0, 0)">
      <!-- Task 1 -->
      <g transform="translate(20, 40)">
        <rect width="80" height="100" 
              rx="8" fill="url(#taskGradient)" opacity="0.9"/>
        <!-- Checkboxes -->
        <rect x="10" y="20" width="12" height="12" 
              rx="2" fill="white"/>
        <path d="M13 26 L17 30 L23 24" 
              stroke="#3452FF" 
              stroke-width="2" 
              fill="none"/>
        <!-- Text lines -->
        <rect x="30" y="23" width="40" height="6" 
              rx="2" fill="white" opacity="0.8"/>
        <!-- Human icon -->
        <circle cx="20" cy="70" r="10" 
                fill="url(#humanGradient)"/>
        <path d="M20 65 L20 75 M15 70 L25 70" 
              stroke="white" 
              stroke-width="2"/>
      </g>

      <!-- Task 2 -->
      <g transform="translate(120, 40)">
        <rect width="80" height="100" 
              rx="8" fill="url(#taskGradient)" opacity="0.7"/>
        <!-- Expert icon -->
        <circle cx="20" cy="70" r="10" 
                fill="url(#humanGradient)"/>
        <path d="M15 70 C15 65, 20 60, 25 65" 
              stroke="white" 
              stroke-width="2" 
              fill="none"/>
      </g>
    </g>

    <!-- Workflow arrows -->
    <g stroke="url(#taskGradient)" stroke-width="2" fill="none">
      <path d="M100 90 L120 90"/>
      <path d="M115 85 L120 90 L115 95"/>
    </g>
  </g>
</svg>